<svg aria-hidden="true" xmlns="http://www.w3.org/2000/svg" xmlns:xlink="http://www.w3.org/1999/xlink"><symbol id="moon" viewBox="0 0 60 60" xml:space="preserve" xmlns="http://www.w3.org/2000/svg">
<style type="text/css">.ast0{fill:#FF9CB4;}</style>
<path class="ast0" d="M30.1,53.4c-1.7,0-3.4-0.2-5.1-0.6c-4.4-1-8.3-3.2-11.5-6.3c-3.2-3.2-5.3-7.1-6.3-11.5c-1-4.4-0.7-8.9,0.8-13.1  s4.2-7.9,7.7-10.6c3.5-2.7,7.8-4.4,12.2-4.8c0.4,0,0.8,0.2,1,0.5c0.2,0.3,0.2,0.8-0.1,1.1c-2.3,3.2-3.5,7.1-3.2,11s2,7.6,4.8,10.4  c2.8,2.8,6.5,4.5,10.4,4.8c3.9,0.3,7.9-0.8,11-3.2c0.3-0.2,0.7-0.3,1.1-0.1c0.3,0.2,0.5,0.6,0.5,1c-0.4,4.5-2.1,8.7-4.8,12.2  c-2.7,3.5-6.4,6.2-10.6,7.7C35.5,52.9,32.8,53.4,30.1,53.4z M26,8.8c-3.3,0.6-6.4,2-9,4.1c-3.2,2.5-5.7,5.9-7.1,9.7  c-1.4,3.8-1.7,8-0.8,12c0.9,4,2.9,7.6,5.8,10.5c2.9,2.9,6.5,4.9,10.5,5.8c4,0.9,8.1,0.6,12-0.8c3.8-1.4,7.2-3.8,9.7-7.1  c2.1-2.7,3.5-5.8,4.1-9c-3.2,1.8-6.8,2.6-10.5,2.3C36.3,36,32.1,34.1,29,31s-5-7.3-5.4-11.7C23.4,15.6,24.2,12,26,8.8z"/>
</symbol><symbol id="shopping-cart" viewBox="0 0 60 60" xml:space="preserve" xmlns="http://www.w3.org/2000/svg">
<style type="text/css">.bst0{fill:#FF9CB4;}</style>
<path class="bst0" d="M22.5,56c-1.9,0-3.5-1.6-3.5-3.5s1.6-3.5,3.5-3.5s3.5,1.6,3.5,3.5S24.4,56,22.5,56z M22.5,51  c-0.8,0-1.5,0.7-1.5,1.5s0.7,1.5,1.5,1.5s1.5-0.7,1.5-1.5S23.3,51,22.5,51z"/>
<path class="bst0" d="M50,56c-1.9,0-3.5-1.6-3.5-3.5S48.1,49,50,49s3.5,1.6,3.5,3.5S51.9,56,50,56z M50,51c-0.8,0-1.5,0.7-1.5,1.5  S49.2,54,50,54s1.5-0.7,1.5-1.5S50.8,51,50,51z"/>
<path class="bst0" d="M24.1,41c-1.3,0-2.7-0.5-3.7-1.3c-1.1-0.9-1.8-2.1-2.1-3.5L14,15.3c0,0,0-0.1,0-0.1L11.7,3.5H2.5  c-0.6,0-1-0.4-1-1s0.4-1,1-1h10c0.5,0,0.9,0.3,1,0.8L15.8,14h41.7c0.3,0,0.6,0.1,0.8,0.4c0.2,0.2,0.3,0.5,0.2,0.8l-4,21  c-0.3,1.4-1,2.6-2.1,3.5c-1.1,0.9-2.5,1.4-3.9,1.3H24.2C24.2,41,24.1,41,24.1,41z M16.2,16l4,19.8c0.2,0.9,0.7,1.8,1.4,2.3  c0.7,0.6,1.6,0.9,2.6,0.9h24.3c1,0,1.9-0.3,2.6-0.9c0.7-0.6,1.2-1.4,1.4-2.3L56.3,16H16.2z"/>
</symbol><symbol id="user" viewBox="0 0 60 60" xml:space="preserve" xmlns="http://www.w3.org/2000/svg">
<style type="text/css">.cst0{fill:#FF9CB4;}</style>
<path class="cst0" d="M50,53.5c-0.6,0-1-0.4-1-1v-5c0-2.4-0.9-4.7-2.6-6.4c-1.7-1.7-4-2.6-6.4-2.6H20c-2.4,0-4.7,0.9-6.4,2.6  c-1.7,1.7-2.6,4-2.6,6.4v5c0,0.6-0.4,1-1,1s-1-0.4-1-1v-5c0-2.9,1.1-5.7,3.2-7.8c2.1-2.1,4.8-3.2,7.8-3.2h20c2.9,0,5.7,1.1,7.8,3.2  c2.1,2.1,3.2,4.8,3.2,7.8v5C51,53.1,50.6,53.5,50,53.5z"/>
<path class="cst0" d="M30,28.5c-6.1,0-11-4.9-11-11s4.9-11,11-11s11,4.9,11,11S36.1,28.5,30,28.5z M30,8.5c-5,0-9,4-9,9s4,9,9,9  c5,0,9-4,9-9S35,8.5,30,8.5z"/>
</symbol></svg>