<?xml version="1.0" encoding="utf-8"?>
<!-- Generator: Adobe Illustrator 25.1.0, SVG Export Plug-In . SVG Version: 6.00 Build 0)  -->
<svg version="1.1" id="Шар_1" xmlns="http://www.w3.org/2000/svg" xmlns:xlink="http://www.w3.org/1999/xlink" x="0px" y="0px"
	 viewBox="0 0 60 60" style="enable-background:new 0 0 60 60;" xml:space="preserve">
<style type="text/css">
	.st0{fill:#FF9CB4;}
</style>
<path class="st0" d="M30.1,53.4c-1.7,0-3.4-0.2-5.1-0.6c-4.4-1-8.3-3.2-11.5-6.3c-3.2-3.2-5.3-7.1-6.3-11.5c-1-4.4-0.7-8.9,0.8-13.1
	s4.2-7.9,7.7-10.6c3.5-2.7,7.8-4.4,12.2-4.8c0.4,0,0.8,0.2,1,0.5c0.2,0.3,0.2,0.8-0.1,1.1c-2.3,3.2-3.5,7.1-3.2,11s2,7.6,4.8,10.4
	c2.8,2.8,6.5,4.5,10.4,4.8c3.9,0.3,7.9-0.8,11-3.2c0.3-0.2,0.7-0.3,1.1-0.1c0.3,0.2,0.5,0.6,0.5,1c-0.4,4.5-2.1,8.7-4.8,12.2
	c-2.7,3.5-6.4,6.2-10.6,7.7C35.5,52.9,32.8,53.4,30.1,53.4z M26,8.8c-3.3,0.6-6.4,2-9,4.1c-3.2,2.5-5.7,5.9-7.1,9.7
	c-1.4,3.8-1.7,8-0.8,12c0.9,4,2.9,7.6,5.8,10.5c2.9,2.9,6.5,4.9,10.5,5.8c4,0.9,8.1,0.6,12-0.8c3.8-1.4,7.2-3.8,9.7-7.1
	c2.1-2.7,3.5-5.8,4.1-9c-3.2,1.8-6.8,2.6-10.5,2.3C36.3,36,32.1,34.1,29,31s-5-7.3-5.4-11.7C23.4,15.6,24.2,12,26,8.8z"/>
</svg>
