<?xml version="1.0" encoding="utf-8"?>
<!-- Generator: Adobe Illustrator 25.1.0, SVG Export Plug-In . SVG Version: 6.00 Build 0)  -->
<svg version="1.1" id="Шар_1" xmlns="http://www.w3.org/2000/svg" xmlns:xlink="http://www.w3.org/1999/xlink" x="0px" y="0px"
	 viewBox="0 0 60 60" style="enable-background:new 0 0 60 60;" xml:space="preserve">
<style type="text/css">
	.st0{fill:#FF9CB4;}
</style>
<path class="st0" d="M22.5,56c-1.9,0-3.5-1.6-3.5-3.5s1.6-3.5,3.5-3.5s3.5,1.6,3.5,3.5S24.4,56,22.5,56z M22.5,51
	c-0.8,0-1.5,0.7-1.5,1.5s0.7,1.5,1.5,1.5s1.5-0.7,1.5-1.5S23.3,51,22.5,51z"/>
<path class="st0" d="M50,56c-1.9,0-3.5-1.6-3.5-3.5S48.1,49,50,49s3.5,1.6,3.5,3.5S51.9,56,50,56z M50,51c-0.8,0-1.5,0.7-1.5,1.5
	S49.2,54,50,54s1.5-0.7,1.5-1.5S50.8,51,50,51z"/>
<path class="st0" d="M24.1,41c-1.3,0-2.7-0.5-3.7-1.3c-1.1-0.9-1.8-2.1-2.1-3.5L14,15.3c0,0,0-0.1,0-0.1L11.7,3.5H2.5
	c-0.6,0-1-0.4-1-1s0.4-1,1-1h10c0.5,0,0.9,0.3,1,0.8L15.8,14h41.7c0.3,0,0.6,0.1,0.8,0.4c0.2,0.2,0.3,0.5,0.2,0.8l-4,21
	c-0.3,1.4-1,2.6-2.1,3.5c-1.1,0.9-2.5,1.4-3.9,1.3H24.2C24.2,41,24.1,41,24.1,41z M16.2,16l4,19.8c0.2,0.9,0.7,1.8,1.4,2.3
	c0.7,0.6,1.6,0.9,2.6,0.9h24.3c1,0,1.9-0.3,2.6-0.9c0.7-0.6,1.2-1.4,1.4-2.3L56.3,16H16.2z"/>
</svg>
