<?xml version="1.0" encoding="utf-8"?>
<!-- Generator: Adobe Illustrator 25.1.0, SVG Export Plug-In . SVG Version: 6.00 Build 0)  -->
<svg version="1.1" id="Шар_1" xmlns="http://www.w3.org/2000/svg" xmlns:xlink="http://www.w3.org/1999/xlink" x="0px" y="0px"
	 viewBox="0 0 60 60" style="enable-background:new 0 0 60 60;" xml:space="preserve">
<style type="text/css">
	.st0{fill:#FF9CB4;}
</style>
<path class="st0" d="M50,53.5c-0.6,0-1-0.4-1-1v-5c0-2.4-0.9-4.7-2.6-6.4c-1.7-1.7-4-2.6-6.4-2.6H20c-2.4,0-4.7,0.9-6.4,2.6
	c-1.7,1.7-2.6,4-2.6,6.4v5c0,0.6-0.4,1-1,1s-1-0.4-1-1v-5c0-2.9,1.1-5.7,3.2-7.8c2.1-2.1,4.8-3.2,7.8-3.2h20c2.9,0,5.7,1.1,7.8,3.2
	c2.1,2.1,3.2,4.8,3.2,7.8v5C51,53.1,50.6,53.5,50,53.5z"/>
<path class="st0" d="M30,28.5c-6.1,0-11-4.9-11-11s4.9-11,11-11s11,4.9,11,11S36.1,28.5,30,28.5z M30,8.5c-5,0-9,4-9,9s4,9,9,9
	c5,0,9-4,9-9S35,8.5,30,8.5z"/>
</svg>
